<?xml version="1.0" encoding="UTF-8"?><svg id="Layer_2" xmlns="http://www.w3.org/2000/svg" viewBox="0 0 500 105.96"><defs><style>.cls-1{fill:#edb631;}.cls-2{fill:#70717e;}</style></defs><g id="Layer_1-2"><g><path class="cls-1" d="M79.3,29.77l10.88,4.15-.73,1.94-10.88-4.15c-.1,.21-.2,.41-.31,.6l-3.45-5.86c-.39-.65-1.07-1.04-1.84-1.04s-1.45,.39-1.83,1.04l-.34,.56-7.83,13.29c-1.27-.15-2.49-.48-3.64-.94l-5.53,11.46-1.87-.9,5.53-11.46c-.86-.49-1.67-1.07-2.42-1.72l-4.89,4.89-1.46-1.46,4.89-4.89c-.93-1.07-1.7-2.28-2.31-3.57l-10.9,4.15-.73-1.94,10.88-4.15c-.32-1.05-.52-2.18-.6-3.32h-6.92v-2.08h6.92c.08-1.14,.28-2.26,.6-3.32l-10.88-4.15,.73-1.94,10.9,4.15c.6-1.29,1.38-2.5,2.31-3.57l-4.89-4.89,1.46-1.46,4.89,4.89c.75-.65,1.56-1.22,2.42-1.72L51.93,.9l1.87-.9,5.53,11.46c1.42-.58,2.95-.93,4.56-1.04V3.5h2.07v6.92c1.6,.11,3.12,.46,4.56,1.04L76.03,0l1.86,.9-5.53,11.46c.86,.49,1.67,1.07,2.42,1.72l4.89-4.89,1.46,1.46-4.89,4.89c.93,1.07,1.72,2.28,2.32,3.57l10.88-4.15,.73,1.94-10.88,4.15c.32,1.05,.53,2.18,.6,3.32h6.93v2.08h-6.93c-.07,1.14-.28,2.26-.6,3.32Z"/><g><g><rect class="cls-2" x="266.95" y="54.61" width="36.09" height="7.62"/><rect class="cls-2" x="266.95" y="92.71" width="36.09" height="7.62"/><rect class="cls-2" x="266.95" y="73.11" width="31.38" height="7.62"/></g><rect class="cls-2" x="408.12" y="73.66" width="45.72" height="7.62" transform="translate(353.51 508.45) rotate(-90)"/><g><polygon class="cls-2" points="191.84 54.61 208.13 100.33 200.51 100.33 184.22 54.61 191.84 54.61"/><polygon class="cls-2" points="183.79 75.25 174.85 100.33 167.23 100.33 179.98 64.55 183.79 75.25"/></g><g><polygon class="cls-2" points="483.71 54.61 500 100.33 492.38 100.33 476.09 54.61 483.71 54.61"/><polygon class="cls-2" points="475.66 75.25 466.72 100.33 459.1 100.33 471.85 64.55 475.66 75.25"/></g><g><polygon class="cls-2" points="353.86 54.62 337.93 77.47 334.12 82.94 322 100.33 314.38 100.33 330.31 77.47 314.38 54.62 322 54.62 334.12 72.01 346.24 54.62 353.86 54.62"/><polygon class="cls-2" points="353.86 100.33 346.24 100.33 338.02 88.53 341.83 83.06 353.86 100.33"/></g><g><polygon class="cls-2" points="401.94 54.62 386.01 77.47 382.2 82.94 370.07 100.33 362.45 100.33 378.39 77.47 362.45 54.62 370.07 54.62 382.2 72.01 394.32 54.62 401.94 54.62"/><polygon class="cls-2" points="401.94 100.33 394.32 100.33 386.09 88.53 389.9 83.06 401.94 100.33"/></g><path class="cls-2" d="M253.93,69.99c0,8.5-6.88,15.38-15.37,15.38h-11.96v14.96h-7.62v-22.58h19.58c4.28,0,7.75-3.48,7.75-7.76,0-2.14-.87-4.08-2.27-5.48-1.4-1.4-3.34-2.27-5.48-2.27h-19.58v-7.62h19.58c8.49,0,15.37,6.88,15.37,15.37Z"/></g><path class="cls-2" d="M149.64,103.08l-42.22-60.32c-.37-.51-1.04-.86-1.73-.86s-1.36,.35-1.76,.86l-10.6,15.17-15.07-25.62-3.45-5.86c-.39-.65-1.07-1.04-1.84-1.04s-1.45,.39-1.83,1.04l-.34,.56-7.83,13.29-15.21,25.84-1.34,2.29-4.08,6.93-3.04,5.13-4.71-8.51-1.56-2.8-5.51-9.94c-.27-.51-.8-.84-1.39-.84s-1.14,.34-1.41,.84L.19,103.53c-.27,.51-.27,1.12,.06,1.63,.27,.51,.79,.8,1.36,.8H147.88c.82,0,1.53-.39,1.88-1.07,.28-.59,.25-1.25-.13-1.81Zm-114.72-23.8l-1.94,6.1-1.27-7.14-2.22,11.01-.79-7.07h-3.09v-3.36h-9.48l10-18.03,5.36,9.66,1.55,2.8,3.32,5.98-1.43,.06Zm48.7-25.52l-3.98,6.44-1.53-3.23-3.19,12.94-1.95-13.13-3.08,8.91-4.16-10.46-3.95,4.72-2.76-7.13h0l-.45-1.15,5.31-9.01,8.96-15.18s.01-.03,.03-.04c.01-.03,.04-.04,.1-.04,.03,0,.06,0,.07,.01,.03,.01,.06,.03,.07,.07l.39,.67,3.59,6.07,2.73,4.64,.98,1.66,7.92,13.44-5.09-.2Zm28.32,6.44v3.25h-2.62v5.5h-2.04l-1.93-8.75-.46,7.66-4.08-7.66-3.39,4.2-2.22-5.69,10.33-14.78s.04-.01,.06-.01c.03-.03,.06-.03,.08-.01,.04,0,.08,0,.11,.03h.01l5.69,8.14,2.56,3.64,3.14,4.49h-5.26Z"/></g></g></svg>